<?xml version="1.0" encoding="UTF-8"?>
<svg version="1.1" viewBox="0 0 1081 858" width="1081" height="858" xmlns="http://www.w3.org/2000/svg">
  <path transform="translate(546,16)" d="m0 0 9 6 18 14 16 12 18 14 38 29 43 33 13 10 21 16 16 12v-56h107l1 140 18 14 12 9 18 14 19 14 15 12 19 14 14 11 34 26 18 14 17 13 18 14 16 12 6 5v1h-155l-18-14-21-16-12-9-30-23-68-52-9-7-38-29-17-13-14-11-12-9-30-23-30-23-18-14-17-13-18-14-13-10-4-2-12 9-13 10-56 43-16 12-18 14-17 13-21 16-18 14-13 10-16 12-18 14-17 13-18 14-13 10-17 13-9 7-1 460 164-1 21-3 22-6 20-8 19-10 17-12 10-8 12-11 11-12 14-19 10-18 8-17 9-28 3-15 2-23v-24l-4-29-6-23-9-22-5-10v-2h-3l-2 5-8 17-5 17-3 20-1 22-1 38-3 18-7 24-10 21-10 15-11 13-11 11-13 10-15 9-17 8-17 5-23 3h-111v-313h114l21 3 21 7 21 11 14 10 13 12 8 8 13 18 1 4h2l3-10 8-16 7-11 4-5-1-4-7-8-16-16-17-13-13-8-17-9-24-9-28-6-8-1-102-1-1-1v-29h105l21 3 25 6 19 7 19 9 18 11 19 14 13 12 6 5 7 8 4 3 10-13 10-18 8-24 5-23h105l21 3 20 5 21 7 21 10 18 11 19 14 17 16 8 8 11 14 9 12 11 19 8 16 8 21 6 22 4 22 1 9v43l-4 26-5 21-8 23-10 21-11 18-12 16-13 15-10 10-8 7-14 11-18 12-17 9h-2l-1 8v13h-25v7h-573v-7h25v-25h-25v-25h25v-25h-25v-25h25v-25h-25v-25h25v-25h-25v-25h25v-25h-25v-25h25v-25h-25v-25h25v-25l15-1v-139l-9 6-14 11-18 14-3 2h-154l4-5 16-12 14-11 26-20 43-33 18-14 51-39 18-14 26-20 17-13 15-12 12-9 18-14 12-9 13-10 18-14 108-83 17-13 18-14 12-9 34-26z" fill="none" stroke="currentColor" stroke-width="3" stroke-linecap="round" stroke-linejoin="round"/>
</svg>
