<?xml version="1.0" encoding="UTF-8"?>
<svg width="1081" height="858" version="1.1" viewBox="0 0 1081 858" xmlns="http://www.w3.org/2000/svg">
 <g fill="#a80" fill-rule="evenodd" stroke-width="1.0632">
  <path d="m224.33 809.68v-40.348l12.227-0.76725-11.965-0.40207-0.79518-191.91c-0.67109-161.96-1.0239-191.91-2.2605-191.91-1.2709 0-20.173 13.868-38.671 28.373l-5.8476 4.5851-69.639-0.0606c-38.302-0.0333-71.491-0.39186-73.753-0.79673l-4.114-0.73612 15.809-12.2c60.486-46.679 395.57-304.53 452.59-348.28 42.249-32.413 46.402-35.44 48.727-35.509 1.9399-0.05729 16.616 10.827 77.453 57.441 22.513 17.25 42.187 32.302 43.719 33.45s11.819 9.0656 22.859 17.595c35.274 27.251 44.397 33.931 46.345 33.931 1.7798 0 1.9031-1.7901 1.9031-27.643v-27.643h105.26v140.16l24.096 18.43c50.591 38.696 96.567 73.666 113.59 86.4 5.8476 4.3745 18.56 14.075 28.25 21.557s26.435 20.302 37.212 28.488l19.594 14.885-150.78 0.54597-24.176-18.347c-32.765-24.865-65.981-50.309-270.52-207.21-26.314-20.186-52.71-40.491-58.657-45.122-5.9471-4.631-12.186-9.2252-13.865-10.209l-3.0523-1.7894-16.436 12.441c-41.641 31.519-253.87 194.34-268.15 205.72l-9.303 7.4159v407.84l-12.227 0.76725 12.227 0.40207-3.6e-4 26.314-3.5e-4 26.314 55.552-0.26867c121.07-0.58551 123.33-0.64956 135.29-3.8217 42.716-11.334 72.03-28.966 102.36-61.569 26.528-28.516 45.647-70.354 50.161-109.77 2.6687-23.301 0.65517-57.987-4.5362-78.145-5.1847-20.132-17.278-47.996-21.14-48.708-3.6946-0.68172-13.034 18.369-17.354 35.397-2.9683 11.701-4.384 26.783-5.8402 62.218-0.73599 17.909-1.7136 29.16-3.1287 36.007-7.213 34.899-22.943 62.701-48.047 84.92-11.874 10.509-21.988 17.052-36.487 23.606-24.635 11.135-36.861 12.531-114.6 13.084l-43.325 0.30854v-311.37l56.084 0.6692c30.846 0.36807 60.15 1.178 65.121 1.7998 36.945 4.6217 73.453 27.748 97.117 61.52 3.3335 4.7572 6.7641 8.6495 7.6235 8.6495 0.93496 0 4.1812-5.2317 8.0814-13.024 3.5853-7.1633 8.9443-17.002 11.909-21.863l5.3901-8.8387-1.9742-3.6658c-2.1263-3.9482-16.997-18.734-28.206-28.046-22.689-18.848-52.605-33.185-82.398-39.49-12.514-2.6482-42.121-3.9825-90.638-4.0848l-31.099-0.0656v-4.0895c0-2.2492-0.3116-8.4792-0.69244-13.845l-0.69244-9.7551 46.676 0.6158c25.672 0.33868 52.533 1.0642 59.693 1.6122 32.569 2.4932 67.356 14.638 96.492 33.687 15.153 9.9072 21.527 15.012 36.468 29.206 9.0871 8.6328 13.968 12.538 15.671 12.538 5.9254 0 20.302-23.942 26.813-44.654 3.1323-9.9638 5.9042-21.189 7.1546-28.972l0.64047-3.987 15.102 0.051c39.985 0.13488 95.312 2.0348 104.52 3.5891 25.504 4.3059 53.099 14.735 76.928 29.073 34.926 21.016 66.975 56.269 84.512 92.96 17.42 36.448 23.981 65.22 23.981 105.18 0 16.452-0.47175 22.655-2.7484 36.14-8.9221 52.847-30.783 95.086-67.004 129.46-17.386 16.499-31.59 26.806-55.705 40.423-9.5947 5.4177-40.634 16.02-56.881 19.43-11.695 2.4542-11.698 2.4543-115.36 2.7384l-103.66 0.28412 11.695-6.7004c11.137-6.3808 21.319-13.031 27.112-17.709 2.591-2.0923 4.1192-2.1482 60.602-2.2173 31.869-0.039 69.666-0.48498 83.993-0.99107 24.795-0.87591 26.739-1.0992 40.401-4.6403 22.935-5.9444 41.874-14.307 60.602-26.759 14.294-9.5042 23.088-17.209 36.994-32.413 20.355-22.255 33.554-44.479 42.638-71.793 7.5537-22.712 8.8093-30.733 9.3864-59.964 0.59083-29.929-0.36831-40.104-5.5693-59.081-6.6884-24.404-14.072-40.699-27.834-61.427-11.126-16.759-22.188-29.393-35.65-40.718-24.824-20.883-49.304-33.539-81.631-42.202l-12.227-3.2767-45.717-0.65762c-25.145-0.36169-45.795-0.64456-45.891-0.62861-0.0952 0.016-2.1463 5.9348-4.558 13.153-6.5832 19.703-18.099 41.186-29.616 55.246-2.2312 2.7239-3.75 5.7386-3.7496 7.4424 3.7e-4 1.5751 3.4814 10.256 7.7357 19.291 18.048 38.328 24.098 62.165 25.268 99.553 0.9724 31.082-2.0565 52.327-11.534 80.898-8.8398 26.648-21.575 50.39-37.827 70.517-8.5942 10.644-33.044 34.402-42.92 41.705-17.461 12.913-44.045 26.712-63.926 33.183-23.856 7.7641-33.703 9.1758-71.008 10.18-18.42 0.496-64.709 0.93527-102.86 0.97617l-69.374 0.0744zm193.65-63.852c24.548-2.813 46.683-14.726 67.133-36.13 15.914-16.656 24.432-32.12 30.17-54.767 2.2483-8.8743 2.7864-13.972 3.2544-30.833 0.49397-17.794 0.28683-21.632-1.7389-32.216-3.6304-18.969-11.038-36.995-20.841-50.713-5.4383-7.6107-17.719-19.923-26.56-26.629-8.4895-6.4391-27.544-15.686-39.118-18.983-9.2793-2.6434-9.6906-2.6644-55.286-2.8216l-45.937-0.15831-0.27011 127.16-0.2701 127.16 40.14-9e-3c22.077-5e-3 44.273-0.48233 49.324-1.0612zm-226.6-372.93c11.98-9.2225 34.94-26.84 51.02-39.149 16.081-12.31 58.662-45.04 94.625-72.735 35.963-27.694 93.854-72.13 128.65-98.745 34.793-26.615 66.76-51.167 71.038-54.56 4.2778-3.3931 8.2564-6.1692 8.8413-6.1692 2.7598 0 2.7703 8e-3 60.994 44.677 199.56 153.1 261.52 200.57 295.89 226.68l22.008 16.719 27.846 0.0266c18.545 0.0177 28.079-0.35088 28.545-1.1036 0.38417-0.62161-0.18564-2.1098-1.2662-3.3072-1.7764-1.9684-65.031-50.635-134.69-103.63l-26.754-20.353-0.70425-5.1638c-0.38734-2.8401-0.74617-31.119-0.7974-62.842l-0.0931-57.678h-49.97v85.097l-15.706-11.981c-8.6384-6.5898-42.157-32.315-74.487-57.167-127.29-97.847-127.24-97.814-130.23-97.814-1.3997 0-12.981 8.1663-28.908 20.384-40.624 31.163-234.31 180.12-297.69 228.94-107.13 82.525-107.85 83.104-106.37 85.507 0.47387 0.76674 9.8589 1.1419 28.565 1.1419h27.859z"/>
  <path d="m511.01 351.12c0.34135-1.9005 3.6785-17.18 7.4158-33.954 3.7373-16.774 6.7952-31.871 6.7952-33.548 0-2.1122-1.1748-4.1753-3.8227-6.7132-16.886-16.185-17.715-39.384-1.991-55.749 8.0784-8.4076 14.782-11.175 27.068-11.175 12.343 0 19.031 2.4213 26.518 9.5993 10.963 10.511 15.261 26.149 10.838 39.431-2.4309 7.3002-10.686 18.914-14.074 19.8-1.1047 0.28888-2.0085 1.1102-2.0085 1.8252 0 1.5158 13.38 63.116 14.905 68.623 0.56689 2.0467 1.0334 4.08 1.0366 4.5186 3e-3 0.43857-16.488 0.7974-36.648 0.7974h-36.654z"/>
  <path d="m600.54 773.83c-1.4159-0.37578-0.47346-2.3851 4.8615-10.365 3.6399-5.4441 7.2094-11.326 7.9323-13.071l1.3143-3.1731 48.047-0.64959c52.912-0.71534 55.033-0.94728 69.413-7.5915 32.031-14.799 55.259-39.202 66.471-69.833 5.5405-15.136 7.3848-25.356 8.054-44.629 0.86216-24.829-2.5513-43.78-11.422-63.413-16.433-36.37-56.621-65.912-92.42-67.937-5.568-0.31501-27.682-0.88639-49.143-1.2698l-39.02-0.69701 4.5352-7.0456c2.4943-3.8751 5.9392-10.016 7.6552-13.647l3.12-6.6014 36.68 0.69638c36.989 0.70225 52.096 2.0027 62.249 5.359 9.496 3.139 29.498 13.253 39.805 20.127 14.481 9.6582 33.886 29.734 41.267 42.693 16.069 28.215 22.387 49.956 23.321 80.253 0.86239 27.987-2.1362 46.096-11.515 69.541-12.068 30.168-34.14 55.538-63.16 72.602-10.761 6.3272-21.694 10.705-35.617 14.26-10.624 2.7132-15.223 3.247-35.086 4.0722-23.075 0.95866-84.095 1.1822-87.344 0.31991z"/>
 </g>
</svg>
